<svg width="24" height="24" viewBox="0 0 24 24" fill="none" xmlns="http://www.w3.org/2000/svg">
<path d="M22.2 2.40002H1.8C1.32261 2.40002 0.864773 2.58967 0.527208 2.92723C0.189642 3.2648 0 3.72263 0 4.20002L0 16.2C0 16.6774 0.189642 17.1353 0.527208 17.4728C0.864773 17.8104 1.32261 18 1.8 18H10.8V19.2H4.2C4.04087 19.2 3.88826 19.2632 3.77574 19.3758C3.66321 19.4883 3.6 19.6409 3.6 19.8V21C3.6 21.1592 3.66321 21.3118 3.77574 21.4243C3.88826 21.5368 4.04087 21.6 4.2 21.6H19.8C19.9591 21.6 20.1117 21.5368 20.2243 21.4243C20.3368 21.3118 20.4 21.1592 20.4 21V19.8C20.4 19.6409 20.3368 19.4883 20.2243 19.3758C20.1117 19.2632 19.9591 19.2 19.8 19.2H13.2V18H22.2C22.6774 18 23.1352 17.8104 23.4728 17.4728C23.8104 17.1353 24 16.6774 24 16.2V4.20002C24 3.72263 23.8104 3.2648 23.4728 2.92723C23.1352 2.58967 22.6774 2.40002 22.2 2.40002ZM21.6 15.6H2.4V4.80002H21.6V15.6Z" fill="white"/>
<path d="M13.2531 7.5H8.74687C8.33437 7.5 8 7.83438 8 8.24688V12.7531C8 13.1656 8.33437 13.5 8.74687 13.5H13.2531C13.6656 13.5 14 13.1656 14 12.7531V8.24688C14 7.83438 13.6656 7.5 13.2531 7.5ZM16.2125 8.08906L14.5 9.27031V11.7297L16.2125 12.9094C16.5437 13.1375 17 12.9047 17 12.5062V8.49219C17 8.09531 16.5453 7.86094 16.2125 8.08906Z" fill="white"/>
</svg>
